<?xml version="1.0" encoding="UTF-8" standalone="no"?><svg xmlns="http://www.w3.org/2000/svg" xmlns:xlink="http://www.w3.org/1999/xlink" contentStyleType="text/css" height="2395px" preserveAspectRatio="none" style="width:1178px;height:2395px;background:#FFFFFF;" version="1.1" viewBox="0 0 1178 2395" width="1178px" zoomAndPan="magnify"><defs/><g><rect fill="none" height="27.6094" id="_title" style="stroke:none;stroke-width:1.0;" width="306" x="432" y="10"/><text fill="#000000" font-family="sans-serif" font-size="14" font-weight="bold" lengthAdjust="spacing" textLength="296" x="437" y="29.5332">Agreeing the terms of a payment in an IIPS</text><line style="stroke:#181818;stroke-width:0.5;stroke-dasharray:5.0,5.0;" x1="31" x2="31" y1="121.2188" y2="2312.9688"/><line style="stroke:#181818;stroke-width:0.5;stroke-dasharray:5.0,5.0;" x1="317.5" x2="317.5" y1="121.2188" y2="2312.9688"/><line style="stroke:#181818;stroke-width:0.5;stroke-dasharray:5.0,5.0;" x1="580" x2="580" y1="121.2188" y2="2312.9688"/><line style="stroke:#181818;stroke-width:0.5;stroke-dasharray:5.0,5.0;" x1="844.5" x2="844.5" y1="121.2188" y2="2312.9688"/><line style="stroke:#181818;stroke-width:0.5;stroke-dasharray:5.0,5.0;" x1="1135" x2="1135" y1="121.2188" y2="2312.9688"/><text fill="#000000" font-family="sans-serif" font-size="14" lengthAdjust="spacing" textLength="46" x="5" y="118.1426">Sender</text><ellipse cx="31" cy="52.1094" fill="#E2E2F0" rx="8" ry="8" style="stroke:#181818;stroke-width:0.5;"/><path d="M31,60.1094 L31,87.1094 M18,68.1094 L44,68.1094 M31,87.1094 L18,102.1094 M31,87.1094 L44,102.1094 " fill="none" style="stroke:#181818;stroke-width:0.5;"/><text fill="#000000" font-family="sans-serif" font-size="14" lengthAdjust="spacing" textLength="46" x="5" y="2326.502">Sender</text><ellipse cx="31" cy="2338.0781" fill="#E2E2F0" rx="8" ry="8" style="stroke:#181818;stroke-width:0.5;"/><path d="M31,2346.0781 L31,2373.0781 M18,2354.0781 L44,2354.0781 M31,2373.0781 L18,2388.0781 M31,2373.0781 L44,2388.0781 " fill="none" style="stroke:#181818;stroke-width:0.5;"/><rect fill="#E2E2F0" height="49.2188" rx="2.5" ry="2.5" style="stroke:#181818;stroke-width:0.5;" width="57" x="289.5" y="71"/><text fill="#000000" font-family="sans-serif" font-size="14" lengthAdjust="spacing" textLength="43" x="296.5" y="92.5332">Debtor</text><text fill="#000000" font-family="sans-serif" font-size="14" lengthAdjust="spacing" textLength="37" x="299.5" y="110.1426">DFSP</text><rect fill="#E2E2F0" height="49.2188" rx="2.5" ry="2.5" style="stroke:#181818;stroke-width:0.5;" width="57" x="289.5" y="2311.9688"/><text fill="#000000" font-family="sans-serif" font-size="14" lengthAdjust="spacing" textLength="43" x="296.5" y="2333.502">Debtor</text><text fill="#000000" font-family="sans-serif" font-size="14" lengthAdjust="spacing" textLength="37" x="299.5" y="2351.1113">DFSP</text><rect fill="#E2E2F0" height="49.2188" rx="2.5" ry="2.5" style="stroke:#181818;stroke-width:0.5;" width="90" x="535" y="71"/><text fill="#000000" font-family="sans-serif" font-size="14" lengthAdjust="spacing" textLength="76" x="542" y="92.5332">Determining</text><text fill="#000000" font-family="sans-serif" font-size="14" lengthAdjust="spacing" textLength="60" x="550" y="110.1426">Institution</text><rect fill="#E2E2F0" height="49.2188" rx="2.5" ry="2.5" style="stroke:#181818;stroke-width:0.5;" width="90" x="535" y="2311.9688"/><text fill="#000000" font-family="sans-serif" font-size="14" lengthAdjust="spacing" textLength="76" x="542" y="2333.502">Determining</text><text fill="#000000" font-family="sans-serif" font-size="14" lengthAdjust="spacing" textLength="60" x="550" y="2351.1113">Institution</text><rect fill="#E2E2F0" height="49.2188" rx="2.5" ry="2.5" style="stroke:#181818;stroke-width:0.5;" width="65" x="812.5" y="71"/><text fill="#000000" font-family="sans-serif" font-size="14" lengthAdjust="spacing" textLength="51" x="819.5" y="92.5332">Creditor</text><text fill="#000000" font-family="sans-serif" font-size="14" lengthAdjust="spacing" textLength="37" x="826.5" y="110.1426">DFSP</text><rect fill="#E2E2F0" height="49.2188" rx="2.5" ry="2.5" style="stroke:#181818;stroke-width:0.5;" width="65" x="812.5" y="2311.9688"/><text fill="#000000" font-family="sans-serif" font-size="14" lengthAdjust="spacing" textLength="51" x="819.5" y="2333.502">Creditor</text><text fill="#000000" font-family="sans-serif" font-size="14" lengthAdjust="spacing" textLength="37" x="826.5" y="2351.1113">DFSP</text><text fill="#000000" font-family="sans-serif" font-size="14" lengthAdjust="spacing" textLength="56" x="1104" y="118.1426">Receiver</text><ellipse cx="1135" cy="52.1094" fill="#E2E2F0" rx="8" ry="8" style="stroke:#181818;stroke-width:0.5;"/><path d="M1135,60.1094 L1135,87.1094 M1122,68.1094 L1148,68.1094 M1135,87.1094 L1122,102.1094 M1135,87.1094 L1148,102.1094 " fill="none" style="stroke:#181818;stroke-width:0.5;"/><text fill="#000000" font-family="sans-serif" font-size="14" lengthAdjust="spacing" textLength="56" x="1104" y="2326.502">Receiver</text><ellipse cx="1135" cy="2338.0781" fill="#E2E2F0" rx="8" ry="8" style="stroke:#181818;stroke-width:0.5;"/><path d="M1135,2346.0781 L1135,2373.0781 M1122,2354.0781 L1148,2354.0781 M1135,2373.0781 L1122,2388.0781 M1135,2373.0781 L1148,2388.0781 " fill="none" style="stroke:#181818;stroke-width:0.5;"/><rect fill="#EEEEEE" height="3" style="stroke:#EEEEEE;stroke-width:1.0;" width="1171" x="0" y="152.3945"/><line style="stroke:#000000;stroke-width:1.0;" x1="0" x2="1171" y1="152.3945" y2="152.3945"/><line style="stroke:#000000;stroke-width:1.0;" x1="0" x2="1171" y1="155.3945" y2="155.3945"/><rect fill="#EEEEEE" height="24.3516" style="stroke:#000000;stroke-width:2.0;" width="189" x="491" y="141.2188"/><text fill="#000000" font-family="sans-serif" font-size="13" font-weight="bold" lengthAdjust="spacing" textLength="171" x="497" y="158.7139">Propose Terms of Payment</text><polygon fill="#181818" points="306,210.2734,316,214.2734,306,218.2734,310,214.2734" style="stroke:#181818;stroke-width:1.0;"/><line style="stroke:#181818;stroke-width:1.0;" x1="31" x2="312" y1="214.2734" y2="214.2734"/><text fill="#000000" font-family="sans-serif" font-size="13" font-weight="bold" lengthAdjust="spacing" textLength="7" x="38" y="201.2412">1</text><text fill="#000000" font-family="sans-serif" font-size="13" lengthAdjust="spacing" textLength="122" x="49" y="193.0654">Please send 100 XXX</text><text fill="#000000" font-family="sans-serif" font-size="13" lengthAdjust="spacing" textLength="207" x="49" y="209.417">to IBAN DE88741270120910023188</text><path d="M217,227.2734 L217,302.2734 L418,302.2734 L418,237.2734 L408,227.2734 L217,227.2734 " fill="#FEFFDD" style="stroke:#181818;stroke-width:0.5;"/><path d="M408,227.2734 L408,237.2734 L418,237.2734 L408,227.2734 " fill="#FEFFDD" style="stroke:#181818;stroke-width:0.5;"/><text fill="#000000" font-family="sans-serif" font-size="13" lengthAdjust="spacing" textLength="4" x="223" y="245.7686"> </text><text fill="#000000" font-family="sans-serif" font-size="13" lengthAdjust="spacing" textLength="180" x="223" y="262.1201">We assume address resolution</text><text fill="#000000" font-family="sans-serif" font-size="13" lengthAdjust="spacing" textLength="86" x="223" y="278.4717">is not required.</text><text fill="#000000" font-family="sans-serif" font-size="13" lengthAdjust="spacing" textLength="4" x="223" y="294.8232"> </text><line style="stroke:#181818;stroke-width:1.0;" x1="318" x2="360" y1="330.0313" y2="330.0313"/><line style="stroke:#181818;stroke-width:1.0;" x1="360" x2="360" y1="330.0313" y2="343.0313"/><line style="stroke:#181818;stroke-width:1.0;" x1="319" x2="360" y1="343.0313" y2="343.0313"/><polygon fill="#181818" points="329,339.0313,319,343.0313,329,347.0313,325,343.0313" style="stroke:#181818;stroke-width:1.0;"/><text fill="#000000" font-family="sans-serif" font-size="13" font-weight="bold" lengthAdjust="spacing" textLength="7" x="325" y="325.1748">2</text><text fill="#000000" font-family="sans-serif" font-size="13" lengthAdjust="spacing" textLength="234" x="336" y="325.1748">I will charge 1 XXX to make this payment</text><polygon fill="#181818" points="833,369.3828,843,373.3828,833,377.3828,837,373.3828" style="stroke:#181818;stroke-width:1.0;"/><line style="stroke:#181818;stroke-width:1.0;" x1="318" x2="839" y1="373.3828" y2="373.3828"/><text fill="#000000" font-family="sans-serif" font-size="13" font-weight="bold" lengthAdjust="spacing" textLength="7" x="325" y="368.5264">3</text><text fill="#000000" font-family="sans-serif" font-size="13" lengthAdjust="spacing" textLength="157" x="336" y="368.5264">Please approve a payment.</text><path d="M170,386.3828 L170,543.3828 L465,543.3828 L465,396.3828 L455,386.3828 L170,386.3828 " fill="#FEFFDD" style="stroke:#181818;stroke-width:0.5;"/><path d="M455,386.3828 L455,396.3828 L465,396.3828 L455,386.3828 " fill="#FEFFDD" style="stroke:#181818;stroke-width:0.5;"/><text fill="#000000" font-family="sans-serif" font-size="13" lengthAdjust="spacing" textLength="4" x="176" y="404.8779"> </text><text fill="#000000" font-family="sans-serif" font-size="13" lengthAdjust="spacing" textLength="102" x="176" y="421.2295">Amount is 99 XXX</text><text fill="#000000" font-family="sans-serif" font-size="13" lengthAdjust="spacing" textLength="251" x="176" y="437.5811">Sender is IBAN DE19665590240100664505</text><text fill="#000000" font-family="sans-serif" font-size="13" lengthAdjust="spacing" textLength="132" x="176" y="453.9326">(include sender's KYC)</text><text fill="#000000" font-family="sans-serif" font-size="13" lengthAdjust="spacing" textLength="4" x="176" y="470.2842"> </text><text fill="#000000" font-family="sans-serif" font-size="13" lengthAdjust="spacing" textLength="274" x="176" y="486.6357">Beneficiary is IBAN DE88741270120910023188</text><text fill="#000000" font-family="sans-serif" font-size="13" lengthAdjust="spacing" textLength="4" x="176" y="502.9873"> </text><text fill="#000000" font-family="sans-serif" font-size="13" lengthAdjust="spacing" textLength="252" x="176" y="519.3389">Fees will be borne by the creditor institution</text><text fill="#000000" font-family="sans-serif" font-size="13" lengthAdjust="spacing" textLength="4" x="176" y="535.6904"> </text><rect fill="#EEEEEE" height="3" style="stroke:#EEEEEE;stroke-width:1.0;" width="1171" x="0" y="569.7227"/><line style="stroke:#000000;stroke-width:1.0;" x1="0" x2="1171" y1="569.7227" y2="569.7227"/><line style="stroke:#000000;stroke-width:1.0;" x1="0" x2="1171" y1="572.7227" y2="572.7227"/><rect fill="#EEEEEE" height="24.3516" style="stroke:#000000;stroke-width:2.0;" width="185" x="493" y="558.5469"/><text fill="#000000" font-family="sans-serif" font-size="13" font-weight="bold" lengthAdjust="spacing" textLength="167" x="499" y="576.042">Approve terms of payment</text><polygon fill="#181818" points="329,627.6016,319,631.6016,329,635.6016,325,631.6016" style="stroke:#181818;stroke-width:1.0;"/><line style="stroke:#181818;stroke-width:1.0;" x1="323" x2="844" y1="631.6016" y2="631.6016"/><text fill="#000000" font-family="sans-serif" font-size="13" font-weight="bold" lengthAdjust="spacing" textLength="7" x="335" y="618.5693">4</text><text fill="#000000" font-family="sans-serif" font-size="13" lengthAdjust="spacing" textLength="163" x="346" y="610.3936">Here are the approved terms</text><text fill="#000000" font-family="sans-serif" font-size="13" lengthAdjust="spacing" textLength="90" x="346" y="626.7451">of the payment.</text><path d="M624,644.6016 L624,964.6016 L1065,964.6016 L1065,654.6016 L1055,644.6016 L624,644.6016 " fill="#FEFFDD" style="stroke:#181818;stroke-width:0.5;"/><path d="M1055,644.6016 L1055,654.6016 L1065,654.6016 L1055,644.6016 " fill="#FEFFDD" style="stroke:#181818;stroke-width:0.5;"/><text fill="#000000" font-family="sans-serif" font-size="13" lengthAdjust="spacing" textLength="4" x="630" y="663.0967"> </text><text fill="#000000" font-family="sans-serif" font-size="13" lengthAdjust="spacing" textLength="102" x="630" y="679.4482">Amount is 99 XXX</text><text fill="#000000" font-family="sans-serif" font-size="13" lengthAdjust="spacing" textLength="251" x="630" y="695.7998">Sender is IBAN DE19665590240100664505</text><text fill="#000000" font-family="sans-serif" font-size="13" lengthAdjust="spacing" textLength="132" x="630" y="712.1514">(include sender's KYC)</text><text fill="#000000" font-family="sans-serif" font-size="13" lengthAdjust="spacing" textLength="4" x="630" y="728.5029"> </text><text fill="#000000" font-family="sans-serif" font-size="13" lengthAdjust="spacing" textLength="274" x="630" y="744.8545">Beneficiary is IBAN DE88741270120910023188</text><text fill="#000000" font-family="sans-serif" font-size="13" lengthAdjust="spacing" textLength="155" x="630" y="761.2061">(include beneficiary's KYC)</text><text fill="#000000" font-family="sans-serif" font-size="13" lengthAdjust="spacing" textLength="4" x="630" y="777.5576"> </text><text fill="#000000" font-family="sans-serif" font-size="13" lengthAdjust="spacing" textLength="252" x="630" y="793.9092">Fees will be borne by the creditor institution</text><text fill="#000000" font-family="sans-serif" font-size="13" lengthAdjust="spacing" textLength="4" x="630" y="810.2607"> </text><text fill="#000000" font-family="sans-serif" font-size="13" lengthAdjust="spacing" textLength="212" x="630" y="826.6123">I will charge 1.5 XXX for this payment</text><text fill="#000000" font-family="sans-serif" font-size="13" lengthAdjust="spacing" textLength="4" x="630" y="842.9639"> </text><text fill="#000000" font-family="sans-serif" font-size="13" lengthAdjust="spacing" textLength="184" x="630" y="859.3154">Beneficiary will receive 97.5 XXX</text><text fill="#000000" font-family="sans-serif" font-size="13" lengthAdjust="spacing" textLength="4" x="630" y="875.667"> </text><text fill="#000000" font-family="sans-serif" font-size="13" lengthAdjust="spacing" textLength="311" x="630" y="892.0186">Here is the cryptographic lock for these agreed terms:</text><text fill="#000000" font-family="sans-serif" font-size="13" lengthAdjust="spacing" textLength="420" x="630" y="908.3701">3ca66a88ef366120d3a3895b237ffb9469501f41194a55ba1a8094f0f3001f73</text><text fill="#000000" font-family="sans-serif" font-size="13" lengthAdjust="spacing" textLength="4" x="630" y="924.7217"> </text><text fill="#000000" font-family="sans-serif" font-size="13" lengthAdjust="spacing" textLength="253" x="630" y="941.0732">These terms are valid for the next 5 minutes</text><text fill="#000000" font-family="sans-serif" font-size="13" lengthAdjust="spacing" textLength="4" x="630" y="957.4248"> </text><rect fill="#EEEEEE" height="3" style="stroke:#EEEEEE;stroke-width:1.0;" width="1171" x="0" y="991.457"/><line style="stroke:#000000;stroke-width:1.0;" x1="0" x2="1171" y1="991.457" y2="991.457"/><line style="stroke:#000000;stroke-width:1.0;" x1="0" x2="1171" y1="994.457" y2="994.457"/><rect fill="#EEEEEE" height="24.3516" style="stroke:#000000;stroke-width:2.0;" width="171" x="500" y="980.2813"/><text fill="#000000" font-family="sans-serif" font-size="13" font-weight="bold" lengthAdjust="spacing" textLength="153" x="506" y="997.7764">Get sender confirmation</text><polygon fill="#181818" points="42,1032.9844,32,1036.9844,42,1040.9844,38,1036.9844" style="stroke:#181818;stroke-width:1.0;"/><line style="stroke:#181818;stroke-width:1.0;" x1="36" x2="317" y1="1036.9844" y2="1036.9844"/><text fill="#000000" font-family="sans-serif" font-size="13" font-weight="bold" lengthAdjust="spacing" textLength="7" x="48" y="1032.1279">5</text><text fill="#000000" font-family="sans-serif" font-size="13" lengthAdjust="spacing" textLength="157" x="59" y="1032.1279">This payment can be made</text><path d="M159,1049.9844 L159,1189.9844 L476,1189.9844 L476,1059.9844 L466,1049.9844 L159,1049.9844 " fill="#FEFFDD" style="stroke:#181818;stroke-width:0.5;"/><path d="M466,1049.9844 L466,1059.9844 L476,1059.9844 L466,1049.9844 " fill="#FEFFDD" style="stroke:#181818;stroke-width:0.5;"/><text fill="#000000" font-family="sans-serif" font-size="13" lengthAdjust="spacing" textLength="4" x="165" y="1068.4795"> </text><text fill="#000000" font-family="sans-serif" font-size="13" lengthAdjust="spacing" textLength="249" x="165" y="1084.8311">The payment will go to Ingeborg Bachmann</text><text fill="#000000" font-family="sans-serif" font-size="13" lengthAdjust="spacing" textLength="213" x="165" y="1101.1826">Your account will be debited 100 XXX</text><text fill="#000000" font-family="sans-serif" font-size="13" lengthAdjust="spacing" textLength="296" x="165" y="1117.5342">Your beneficiary's account will be credited 97.5 XXX</text><text fill="#000000" font-family="sans-serif" font-size="13" lengthAdjust="spacing" textLength="4" x="165" y="1133.8857"> </text><text fill="#000000" font-family="sans-serif" font-size="13" lengthAdjust="spacing" textLength="180" x="165" y="1150.2373">Please use your PIN to confirm</text><text fill="#000000" font-family="sans-serif" font-size="13" lengthAdjust="spacing" textLength="239" x="169" y="1166.5889">that you would like to make the payment.</text><text fill="#000000" font-family="sans-serif" font-size="13" lengthAdjust="spacing" textLength="4" x="165" y="1182.9404"> </text><polygon fill="#181818" points="306,1214.1484,316,1218.1484,306,1222.1484,310,1218.1484" style="stroke:#181818;stroke-width:1.0;"/><line style="stroke:#181818;stroke-width:1.0;" x1="31" x2="312" y1="1218.1484" y2="1218.1484"/><text fill="#000000" font-family="sans-serif" font-size="13" font-weight="bold" lengthAdjust="spacing" textLength="7" x="38" y="1213.292">6</text><text fill="#000000" font-family="sans-serif" font-size="13" lengthAdjust="spacing" textLength="156" x="49" y="1213.292">Please make the payment.</text><rect fill="#EEEEEE" height="3" style="stroke:#EEEEEE;stroke-width:1.0;" width="1171" x="0" y="1247.3242"/><line style="stroke:#000000;stroke-width:1.0;" x1="0" x2="1171" y1="1247.3242" y2="1247.3242"/><line style="stroke:#000000;stroke-width:1.0;" x1="0" x2="1171" y1="1250.3242" y2="1250.3242"/><rect fill="#EEEEEE" height="24.3516" style="stroke:#000000;stroke-width:2.0;" width="128" x="521.5" y="1236.1484"/><text fill="#000000" font-family="sans-serif" font-size="13" font-weight="bold" lengthAdjust="spacing" textLength="110" x="527.5" y="1253.6436">Execute payment</text><polygon fill="#181818" points="568,1337.9063,578,1341.9063,568,1345.9063,572,1341.9063" style="stroke:#181818;stroke-width:1.0;"/><line style="stroke:#181818;stroke-width:1.0;" x1="318" x2="574" y1="1341.9063" y2="1341.9063"/><text fill="#000000" font-family="sans-serif" font-size="13" font-weight="bold" lengthAdjust="spacing" textLength="7" x="325" y="1312.5225">7</text><text fill="#000000" font-family="sans-serif" font-size="13" lengthAdjust="spacing" textLength="182" x="336" y="1287.9951">I want to execute this payment.</text><text fill="#000000" font-family="sans-serif" font-size="13" lengthAdjust="spacing" textLength="157" x="336" y="1304.3467">Please reserve the funds to</text><text fill="#000000" font-family="sans-serif" font-size="13" lengthAdjust="spacing" textLength="165" x="336" y="1320.6982">guarantee reimbursement for</text><text fill="#000000" font-family="sans-serif" font-size="13" lengthAdjust="spacing" textLength="98" x="336" y="1337.0498">the creditor party</text><path d="M97,1354.9063 L97,1560.9063 L538,1560.9063 L538,1364.9063 L528,1354.9063 L97,1354.9063 " fill="#FEFFDD" style="stroke:#181818;stroke-width:0.5;"/><path d="M528,1354.9063 L528,1364.9063 L538,1364.9063 L528,1354.9063 " fill="#FEFFDD" style="stroke:#181818;stroke-width:0.5;"/><text fill="#000000" font-family="sans-serif" font-size="13" lengthAdjust="spacing" textLength="4" x="103" y="1373.4014"> </text><text fill="#000000" font-family="sans-serif" font-size="13" lengthAdjust="spacing" textLength="102" x="103" y="1389.7529">Amount is 99 XXX</text><text fill="#000000" font-family="sans-serif" font-size="13" lengthAdjust="spacing" textLength="251" x="103" y="1406.1045">Sender is IBAN DE19665590240100664505</text><text fill="#000000" font-family="sans-serif" font-size="13" lengthAdjust="spacing" textLength="132" x="103" y="1422.4561">(include sender's KYC)</text><text fill="#000000" font-family="sans-serif" font-size="13" lengthAdjust="spacing" textLength="4" x="103" y="1438.8076"> </text><text fill="#000000" font-family="sans-serif" font-size="13" lengthAdjust="spacing" textLength="274" x="103" y="1455.1592">Beneficiary is IBAN DE88741270120910023188</text><text fill="#000000" font-family="sans-serif" font-size="13" lengthAdjust="spacing" textLength="155" x="103" y="1471.5107">(include beneficiary's KYC)</text><text fill="#000000" font-family="sans-serif" font-size="13" lengthAdjust="spacing" textLength="4" x="103" y="1487.8623"> </text><text fill="#000000" font-family="sans-serif" font-size="13" lengthAdjust="spacing" textLength="184" x="103" y="1504.2139">Beneficiary will receive 97.5 XXX</text><text fill="#000000" font-family="sans-serif" font-size="13" lengthAdjust="spacing" textLength="4" x="103" y="1520.5654"> </text><text fill="#000000" font-family="sans-serif" font-size="13" lengthAdjust="spacing" textLength="311" x="103" y="1536.917">Here is the cryptographic lock for these agreed terms:</text><text fill="#000000" font-family="sans-serif" font-size="13" lengthAdjust="spacing" textLength="420" x="103" y="1553.2686">3ca66a88ef366120d3a3895b237ffb9469501f41194a55ba1a8094f0f3001f73</text><line style="stroke:#181818;stroke-width:1.0;" x1="580" x2="622" y1="1588.4766" y2="1588.4766"/><line style="stroke:#181818;stroke-width:1.0;" x1="622" x2="622" y1="1588.4766" y2="1601.4766"/><line style="stroke:#181818;stroke-width:1.0;" x1="581" x2="622" y1="1601.4766" y2="1601.4766"/><polygon fill="#181818" points="591,1597.4766,581,1601.4766,591,1605.4766,587,1601.4766" style="stroke:#181818;stroke-width:1.0;"/><text fill="#000000" font-family="sans-serif" font-size="13" font-weight="bold" lengthAdjust="spacing" textLength="7" x="587" y="1583.6201">8</text><text fill="#000000" font-family="sans-serif" font-size="13" lengthAdjust="spacing" textLength="81" x="598" y="1583.6201">Reserve funds</text><line style="stroke:#181818;stroke-width:1.0;" x1="580" x2="622" y1="1631.8281" y2="1631.8281"/><line style="stroke:#181818;stroke-width:1.0;" x1="622" x2="622" y1="1631.8281" y2="1644.8281"/><line style="stroke:#181818;stroke-width:1.0;" x1="581" x2="622" y1="1644.8281" y2="1644.8281"/><polygon fill="#181818" points="591,1640.8281,581,1644.8281,591,1648.8281,587,1644.8281" style="stroke:#181818;stroke-width:1.0;"/><text fill="#000000" font-family="sans-serif" font-size="13" font-weight="bold" lengthAdjust="spacing" textLength="7" x="587" y="1626.9717">9</text><text fill="#000000" font-family="sans-serif" font-size="13" lengthAdjust="spacing" textLength="163" x="598" y="1626.9717">Store the cryptographic lock</text><polygon fill="#181818" points="833,1671.1797,843,1675.1797,833,1679.1797,837,1675.1797" style="stroke:#181818;stroke-width:1.0;"/><line style="stroke:#181818;stroke-width:1.0;" x1="580" x2="839" y1="1675.1797" y2="1675.1797"/><text fill="#000000" font-family="sans-serif" font-size="13" font-weight="bold" lengthAdjust="spacing" textLength="14" x="587" y="1670.3232">10</text><text fill="#000000" font-family="sans-serif" font-size="13" lengthAdjust="spacing" textLength="169" x="605" y="1670.3232">Please execute this payment</text><line style="stroke:#181818;stroke-width:1.0;" x1="845" x2="887" y1="1738.2344" y2="1738.2344"/><line style="stroke:#181818;stroke-width:1.0;" x1="887" x2="887" y1="1738.2344" y2="1751.2344"/><line style="stroke:#181818;stroke-width:1.0;" x1="846" x2="887" y1="1751.2344" y2="1751.2344"/><polygon fill="#181818" points="856,1747.2344,846,1751.2344,856,1755.2344,852,1751.2344" style="stroke:#181818;stroke-width:1.0;"/><text fill="#000000" font-family="sans-serif" font-size="13" font-weight="bold" lengthAdjust="spacing" textLength="14" x="852" y="1717.0264">11</text><text fill="#000000" font-family="sans-serif" font-size="13" lengthAdjust="spacing" textLength="258" x="870" y="1700.6748">Did this request come from the debtor party?</text><text fill="#000000" font-family="sans-serif" font-size="13" lengthAdjust="spacing" textLength="236" x="870" y="1717.0264">Yes, it did: so I can trust that good funds</text><text fill="#000000" font-family="sans-serif" font-size="13" lengthAdjust="spacing" textLength="242" x="870" y="1733.3779">have been reserved to cover this payment.</text><line style="stroke:#181818;stroke-width:1.0;" x1="845" x2="887" y1="1797.9375" y2="1797.9375"/><line style="stroke:#181818;stroke-width:1.0;" x1="887" x2="887" y1="1797.9375" y2="1810.9375"/><line style="stroke:#181818;stroke-width:1.0;" x1="846" x2="887" y1="1810.9375" y2="1810.9375"/><polygon fill="#181818" points="856,1806.9375,846,1810.9375,856,1814.9375,852,1810.9375" style="stroke:#181818;stroke-width:1.0;"/><text fill="#000000" font-family="sans-serif" font-size="13" font-weight="bold" lengthAdjust="spacing" textLength="14" x="852" y="1784.9053">12</text><text fill="#000000" font-family="sans-serif" font-size="13" lengthAdjust="spacing" textLength="208" x="870" y="1776.7295">I will credit the beneficiary's account</text><text fill="#000000" font-family="sans-serif" font-size="13" lengthAdjust="spacing" textLength="77" x="870" y="1793.0811">with 97.5 XXX</text><polygon fill="#181818" points="1123,1853.6406,1133,1857.6406,1123,1861.6406,1127,1857.6406" style="stroke:#181818;stroke-width:1.0;"/><line style="stroke:#181818;stroke-width:1.0;" x1="845" x2="1129" y1="1857.6406" y2="1857.6406"/><text fill="#000000" font-family="sans-serif" font-size="13" font-weight="bold" lengthAdjust="spacing" textLength="14" x="852" y="1844.6084">13</text><text fill="#000000" font-family="sans-serif" font-size="13" lengthAdjust="spacing" textLength="169" x="870" y="1836.4326">You have received a payment</text><text fill="#000000" font-family="sans-serif" font-size="13" lengthAdjust="spacing" textLength="167" x="870" y="1852.7842">of 97.5 XXX from Nelly Sachs</text><polygon fill="#181818" points="591,1916.6953,581,1920.6953,591,1924.6953,587,1920.6953" style="stroke:#181818;stroke-width:1.0;"/><line style="stroke:#181818;stroke-width:1.0;" x1="585" x2="844" y1="1920.6953" y2="1920.6953"/><text fill="#000000" font-family="sans-serif" font-size="13" font-weight="bold" lengthAdjust="spacing" textLength="14" x="597" y="1899.4873">14</text><text fill="#000000" font-family="sans-serif" font-size="13" lengthAdjust="spacing" textLength="171" x="615" y="1883.1357">I have credited the beneficiary</text><text fill="#000000" font-family="sans-serif" font-size="13" lengthAdjust="spacing" textLength="84" x="615" y="1899.4873">with the funds.</text><text fill="#000000" font-family="sans-serif" font-size="13" lengthAdjust="spacing" textLength="174" x="615" y="1915.8389">Here is the cryptographic key.</text><path d="M622,1933.6953 L622,2024.6953 L1067,2024.6953 L1067,1943.6953 L1057,1933.6953 L622,1933.6953 " fill="#FEFFDD" style="stroke:#181818;stroke-width:0.5;"/><path d="M1057,1933.6953 L1057,1943.6953 L1067,1943.6953 L1057,1933.6953 " fill="#FEFFDD" style="stroke:#181818;stroke-width:0.5;"/><text fill="#000000" font-family="sans-serif" font-size="13" lengthAdjust="spacing" textLength="4" x="628" y="1952.1904"> </text><text fill="#000000" font-family="sans-serif" font-size="13" lengthAdjust="spacing" textLength="127" x="628" y="1968.542">Payment is complete.</text><text fill="#000000" font-family="sans-serif" font-size="13" lengthAdjust="spacing" textLength="113" x="628" y="1984.8936">Cryptogtraphic key:</text><text fill="#000000" font-family="sans-serif" font-size="13" lengthAdjust="spacing" textLength="424" x="628" y="2001.2451">7048f38b33f135df36b3d9d382f167d45cfdda857b616899c9d8c9acd2751f64</text><text fill="#000000" font-family="sans-serif" font-size="13" lengthAdjust="spacing" textLength="4" x="628" y="2017.5967"> </text><line style="stroke:#181818;stroke-width:1.0;" x1="580" x2="622" y1="2069.1563" y2="2069.1563"/><line style="stroke:#181818;stroke-width:1.0;" x1="622" x2="622" y1="2069.1563" y2="2082.1563"/><line style="stroke:#181818;stroke-width:1.0;" x1="581" x2="622" y1="2082.1563" y2="2082.1563"/><polygon fill="#181818" points="591,2078.1563,581,2082.1563,591,2086.1563,587,2082.1563" style="stroke:#181818;stroke-width:1.0;"/><text fill="#000000" font-family="sans-serif" font-size="13" font-weight="bold" lengthAdjust="spacing" textLength="14" x="587" y="2056.124">15</text><text fill="#000000" font-family="sans-serif" font-size="13" lengthAdjust="spacing" textLength="230" x="605" y="2047.9482">Does the cryptographic key fit the lock?</text><text fill="#000000" font-family="sans-serif" font-size="13" lengthAdjust="spacing" textLength="74" x="605" y="2064.2998">Yes, it does.</text><line style="stroke:#181818;stroke-width:1.0;" x1="580" x2="622" y1="2128.8594" y2="2128.8594"/><line style="stroke:#181818;stroke-width:1.0;" x1="622" x2="622" y1="2128.8594" y2="2141.8594"/><line style="stroke:#181818;stroke-width:1.0;" x1="581" x2="622" y1="2141.8594" y2="2141.8594"/><polygon fill="#181818" points="591,2137.8594,581,2141.8594,591,2145.8594,587,2141.8594" style="stroke:#181818;stroke-width:1.0;"/><text fill="#000000" font-family="sans-serif" font-size="13" font-weight="bold" lengthAdjust="spacing" textLength="14" x="587" y="2115.8271">16</text><text fill="#000000" font-family="sans-serif" font-size="13" lengthAdjust="spacing" textLength="233" x="605" y="2107.6514">Convert the reservation into an obligation</text><text fill="#000000" font-family="sans-serif" font-size="13" lengthAdjust="spacing" textLength="108" x="605" y="2124.0029">for later settlement</text><polygon fill="#181818" points="329,2184.5625,319,2188.5625,329,2192.5625,325,2188.5625" style="stroke:#181818;stroke-width:1.0;"/><line style="stroke:#181818;stroke-width:1.0;" x1="323" x2="579" y1="2188.5625" y2="2188.5625"/><text fill="#000000" font-family="sans-serif" font-size="13" font-weight="bold" lengthAdjust="spacing" textLength="14" x="335" y="2175.5303">17</text><text fill="#000000" font-family="sans-serif" font-size="13" lengthAdjust="spacing" textLength="127" x="353" y="2167.3545">Payment is complete.</text><text fill="#000000" font-family="sans-serif" font-size="13" lengthAdjust="spacing" textLength="174" x="353" y="2183.7061">Here is the cryptographic key.</text><line style="stroke:#181818;stroke-width:1.0;" x1="318" x2="360" y1="2235.2656" y2="2235.2656"/><line style="stroke:#181818;stroke-width:1.0;" x1="360" x2="360" y1="2235.2656" y2="2248.2656"/><line style="stroke:#181818;stroke-width:1.0;" x1="319" x2="360" y1="2248.2656" y2="2248.2656"/><polygon fill="#181818" points="329,2244.2656,319,2248.2656,329,2252.2656,325,2248.2656" style="stroke:#181818;stroke-width:1.0;"/><text fill="#000000" font-family="sans-serif" font-size="13" font-weight="bold" lengthAdjust="spacing" textLength="14" x="325" y="2222.2334">18</text><text fill="#000000" font-family="sans-serif" font-size="13" lengthAdjust="spacing" textLength="230" x="343" y="2214.0576">Does the cryptographic key fit the lock?</text><text fill="#000000" font-family="sans-serif" font-size="13" lengthAdjust="spacing" textLength="74" x="343" y="2230.4092">Yes, it does.</text><polygon fill="#181818" points="42,2290.9688,32,2294.9688,42,2298.9688,38,2294.9688" style="stroke:#181818;stroke-width:1.0;"/><line style="stroke:#181818;stroke-width:1.0;" x1="36" x2="317" y1="2294.9688" y2="2294.9688"/><text fill="#000000" font-family="sans-serif" font-size="13" font-weight="bold" lengthAdjust="spacing" textLength="14" x="48" y="2281.9365">19</text><text fill="#000000" font-family="sans-serif" font-size="13" lengthAdjust="spacing" textLength="156" x="66" y="2273.7607">Your payment is complete.</text><text fill="#000000" font-family="sans-serif" font-size="13" lengthAdjust="spacing" textLength="245" x="66" y="2290.1123">Ingeborg Bachmann has received 97.5 XXX</text><!--MD5=[5c6d1acd15b1f94a7959346ec93b559f]
@startuml

title Agreeing the terms of a payment in an IIPS

actor "Sender" as A1
participant "Debtor\nDFSP" as D1
participant "Determining\nInstitution" as D2
participant "Creditor\nDFSP" as D3
actor "Receiver" as A2

autonumber

== Propose Terms of Payment ==

A1->D1:Please send 100 XXX\nto IBAN DE88741270120910023188
note over D1

We assume address resolution
is not required.

end note
D1->D1:I will charge 1 XXX to make this payment
D1->D3:Please approve a payment.
note over D1

Amount is 99 XXX
Sender is IBAN DE19665590240100664505
(include sender's KYC)

Beneficiary is IBAN DE88741270120910023188

Fees will be borne by the creditor institution

end note
== Approve terms of payment ==
D3->D1:Here are the approved terms\nof the payment.
note over D3

Amount is 99 XXX
Sender is IBAN DE19665590240100664505
(include sender's KYC)

Beneficiary is IBAN DE88741270120910023188
(include beneficiary's KYC)

Fees will be borne by the creditor institution

I will charge 1.5 XXX for this payment

Beneficiary will receive 97.5 XXX

Here is the cryptographic lock for these agreed terms:
3ca66a88ef366120d3a3895b237ffb9469501f41194a55ba1a8094f0f3001f73

These terms are valid for the next 5 minutes

end note
== Get sender confirmation ==
D1->A1:This payment can be made

note over D1

The payment will go to Ingeborg Bachmann
Your account will be debited 100 XXX
Your beneficiary's account will be credited 97.5 XXX

Please use your PIN to confirm
 that you would like to make the payment.

end note
A1->D1:Please make the payment.

== Execute payment ==

D1->D2:I want to execute this payment.\nPlease reserve the funds to\nguarantee reimbursement for\nthe creditor party
note over D1

Amount is 99 XXX
Sender is IBAN DE19665590240100664505
(include sender's KYC)

Beneficiary is IBAN DE88741270120910023188
(include beneficiary's KYC)

Beneficiary will receive 97.5 XXX

Here is the cryptographic lock for these agreed terms:
3ca66a88ef366120d3a3895b237ffb9469501f41194a55ba1a8094f0f3001f73
end note

D2->D2:Reserve funds
D2->D2:Store the cryptographic lock
D2->D3:Please execute this payment

D3->D3:Did this request come from the debtor party?\nYes, it did: so I can trust that good funds\nhave been reserved to cover this payment.
D3->D3:I will credit the beneficiary's account\nwith 97.5 XXX
D3->A2:You have received a payment\nof 97.5 XXX from Nelly Sachs
D3->D2:I have credited the beneficiary\nwith the funds.\nHere is the cryptographic key.
note over D3

Payment is complete.
Cryptogtraphic key:
7048f38b33f135df36b3d9d382f167d45cfdda857b616899c9d8c9acd2751f64

end note
D2->D2:Does the cryptographic key fit the lock?\nYes, it does.
D2->D2:Convert the reservation into an obligation\nfor later settlement
D2->D1:Payment is complete.\nHere is the cryptographic key.
D1->D1:Does the cryptographic key fit the lock?\nYes, it does.
D1->A1:Your payment is complete.\nIngeborg Bachmann has received 97.5 XXX

@enduml

PlantUML version 1.2022.7(Mon Aug 22 18:01:30 BST 2022)
(GPL source distribution)
Java Runtime: Java(TM) SE Runtime Environment
JVM: Java HotSpot(TM) 64-Bit Server VM
Default Encoding: Cp1252
Language: en
Country: GB
--></g></svg>